REM DIRINDEX 1\2\4,1\2\5,1\2\6,1\3\7,1\3\8
REM DIRNAME cjc128,folder01,folder02,folder03,folder04,folder05,folder06,folder07
TITLE ""
FILE "020_Communication Stage 3.mp3" MP3
  TRACK 01 AUDIO
    TITLE "0:"
    INDEX 01 00:00:00
  TRACK 02 AUDIO
    TITLE "6:cjc128_1179"
    INDEX 01 00:00:11
  TRACK 03 AUDIO
    TITLE "0:"
    INDEX 01 00:02:53
  TRACK 04 AUDIO
    TITLE "6:cjc128_1180"
    INDEX 01 00:03:02
  TRACK 05 AUDIO
    TITLE "0:"
    INDEX 01 00:05:20
  TRACK 06 AUDIO
    TITLE "4:cjc128_1181"
    INDEX 01 00:05:71
  TRACK 07 AUDIO
    TITLE "0:"
    INDEX 01 00:08:44
  TRACK 08 AUDIO
    TITLE "5:cjc128_1182"
    INDEX 01 00:12:20
  TRACK 09 AUDIO
    TITLE "0:"
    INDEX 01 00:15:05
  TRACK 10 AUDIO
    TITLE "6:cjc128_1183"
    INDEX 01 00:16:02
  TRACK 11 AUDIO
    TITLE "0:"
    INDEX 01 00:17:65
  TRACK 12 AUDIO
    TITLE "4:cjc128_1184"
    INDEX 01 00:18:44
  TRACK 13 AUDIO
    TITLE "0:"
    INDEX 01 00:20:65
  TRACK 14 AUDIO
    TITLE "5:cjc128_1185"
    INDEX 01 00:23:55
  TRACK 15 AUDIO
    TITLE "0:"
    INDEX 01 00:26:05
  TRACK 16 AUDIO
    TITLE "6:cjc128_1186"
    INDEX 01 00:26:62
  TRACK 17 AUDIO
    TITLE "0:"
    INDEX 01 00:28:55
  TRACK 18 AUDIO
    TITLE "4:cjc128_1187"
    INDEX 01 00:29:27
  TRACK 19 AUDIO
    TITLE "0:"
    INDEX 01 00:31:22
  TRACK 20 AUDIO
    TITLE "5:cjc128_1188"
    INDEX 01 00:33:66
  TRACK 21 AUDIO
    TITLE "0:"
    INDEX 01 00:35:63
  TRACK 22 AUDIO
    TITLE "6:cjc128_1189"
    INDEX 01 00:36:38
  TRACK 23 AUDIO
    TITLE "0:"
    INDEX 01 00:38:14
  TRACK 24 AUDIO
    TITLE "4:cjc128_1190"
    INDEX 01 00:38:73
  TRACK 25 AUDIO
    TITLE "0:"
    INDEX 01 00:41:20
  TRACK 26 AUDIO
    TITLE "5:cjc128_1191"
    INDEX 01 00:44:24
  TRACK 27 AUDIO
    TITLE "0:"
    INDEX 01 00:46:56
  TRACK 28 AUDIO
    TITLE "6:cjc128_1192"
    INDEX 01 00:47:34
  TRACK 29 AUDIO
    TITLE "0:"
    INDEX 01 00:49:29
  TRACK 30 AUDIO
    TITLE "4:cjc128_1193"
    INDEX 01 00:50:09
  TRACK 31 AUDIO
    TITLE "0:"
    INDEX 01 00:52:22
  TRACK 32 AUDIO
    TITLE "5:cjc128_1194"
    INDEX 01 00:55:26
  TRACK 33 AUDIO
    TITLE "0:"
    INDEX 01 00:57:68
  TRACK 34 AUDIO
    TITLE "6:cjc128_1195"
    INDEX 01 00:58:50
  TRACK 35 AUDIO
    TITLE "0:"
    INDEX 01 01:00:41
  TRACK 36 AUDIO
    TITLE "4:cjc128_1196"
    INDEX 01 01:01:25
  TRACK 37 AUDIO
    TITLE "0:"
    INDEX 01 01:03:71
  TRACK 38 AUDIO
    TITLE "5:cjc128_1197"
    INDEX 01 01:07:29
  TRACK 39 AUDIO
    TITLE "0:"
    INDEX 01 01:10:08
  TRACK 40 AUDIO
    TITLE "6:cjc128_1198"
    INDEX 01 01:10:67
  TRACK 41 AUDIO
    TITLE "0:"
    INDEX 01 01:12:58
  TRACK 42 AUDIO
    TITLE "4:cjc128_1199"
    INDEX 01 01:13:40
  TRACK 43 AUDIO
    TITLE "0:"
    INDEX 01 01:15:46
  TRACK 44 AUDIO
    TITLE "5:cjc128_1200"
    INDEX 01 01:18:37
  TRACK 45 AUDIO
    TITLE "0:"
    INDEX 01 01:21:14
  TRACK 46 AUDIO
    TITLE "6:cjc128_1201"
    INDEX 01 01:21:70
  TRACK 47 AUDIO
    TITLE "0:"
    INDEX 01 01:23:62
  TRACK 48 AUDIO
    TITLE "4:cjc128_1202"
    INDEX 01 01:24:34
  TRACK 49 AUDIO
    TITLE "0:"
    INDEX 01 01:25:72
  TRACK 50 AUDIO
    TITLE "5:cjc128_1203"
    INDEX 01 01:27:69
  TRACK 51 AUDIO
    TITLE "0:"
    INDEX 01 01:29:19
  TRACK 52 AUDIO
    TITLE "6:cjc128_1204"
    INDEX 01 01:29:74
  TRACK 53 AUDIO
    TITLE "0:"
    INDEX 01 01:31:67
  TRACK 54 AUDIO
    TITLE "4:cjc128_1205"
    INDEX 01 01:32:39
  TRACK 55 AUDIO
    TITLE "0:"
    INDEX 01 01:34:73
  TRACK 56 AUDIO
    TITLE "5:cjc128_1206"
    INDEX 01 01:38:10
  TRACK 57 AUDIO
    TITLE "0:"
    INDEX 01 01:40:44
  TRACK 58 AUDIO
    TITLE "6:cjc128_1207"
    INDEX 01 01:41:26
  TRACK 59 AUDIO
    TITLE "0:"
    INDEX 01 01:43:19
  TRACK 60 AUDIO
    TITLE "4:cjc128_1208"
    INDEX 01 01:44:07
  TRACK 61 AUDIO
    TITLE "0:"
    INDEX 01 01:46:16
  TRACK 62 AUDIO
    TITLE "5:cjc128_1209"
    INDEX 01 01:48:42
  TRACK 63 AUDIO
    TITLE "0:"
    INDEX 01 01:50:25
